<svg width="21" height="16" viewBox="0 0 21 16" fill="none" xmlns="http://www.w3.org/2000/svg">
<path d="M2.6437 0.7854H18.5437C20.0437 0.7854 20.7997 1.49305 20.7997 2.93233V13.0313C20.7997 14.4586 20.0437 15.1782 18.5437 15.1782H2.6437C1.1437 15.1782 0.387695 14.4586 0.387695 13.0313V2.93233C0.387695 1.49305 1.1437 0.7854 2.6437 0.7854ZM10.5877 11.1003L18.6757 4.46756C18.9637 4.22768 19.1917 3.67596 18.8317 3.1842C18.4837 2.69245 17.8477 2.68046 17.4277 2.98031L10.5877 7.61L3.7597 2.98031C3.3397 2.68046 2.7037 2.69245 2.3557 3.1842C1.9957 3.67596 2.2237 4.22768 2.5117 4.46756L10.5877 11.1003Z" fill="#C20202"/>
</svg>
