<svg width="20" height="24" viewBox="0 0 20 24" fill="none" xmlns="http://www.w3.org/2000/svg">
<path d="M10 0C7.34873 0.00291014 4.80688 1.05689 2.93215 2.93069C1.05742 4.80448 0.0029116 7.34506 0 9.99501C0 15.2744 8.4 22.5218 9.354 23.3314L10 23.8771L10.646 23.3314C11.6 22.5218 20 15.2744 20 9.99501C19.9971 7.34506 18.9426 4.80448 17.0679 2.93069C15.1931 1.05689 12.6513 0.00291014 10 0V0ZM10 14.9925C9.0111 14.9925 8.0444 14.6994 7.22215 14.1503C6.3999 13.6012 5.75904 12.8207 5.3806 11.9075C5.00217 10.9943 4.90315 9.98947 5.09608 9.02005C5.289 8.05063 5.7652 7.16016 6.46447 6.46124C7.16373 5.76233 8.05465 5.28636 9.02455 5.09353C9.99446 4.9007 10.9998 4.99967 11.9134 5.37792C12.8271 5.75617 13.6079 6.39671 14.1574 7.21855C14.7068 8.04038 15 9.0066 15 9.99501C14.9984 11.3199 14.4711 12.5902 13.5338 13.527C12.5964 14.4639 11.3256 14.9909 10 14.9925Z" fill="#FF0000"/>
</svg>
