<svg width="38" height="38" viewBox="0 0 38 38" fill="none" xmlns="http://www.w3.org/2000/svg">
<path d="M28.6189 2.46049L35.2261 9.348V35.5395H10.5439V35.625H35.3104V9.43468L28.6189 2.46049Z" fill="#909090"/>
<path d="M28.5373 2.375H10.46V35.5395H35.2265V9.34919L28.5373 2.375Z" fill="#F4F4F4"/>
<path d="M10.2776 4.15625H2.68945V12.2633H26.5582V4.15625H10.2776Z" fill="#7A7B7C"/>
<path d="M26.6852 12.1256H2.84375V4.01256H26.6852V12.1256Z" fill="#DD2025"/>
<path d="M10.7493 5.38413H9.19727V11.0841H10.418V9.16157L10.6876 9.17701C10.9495 9.1725 11.209 9.12558 11.4559 9.03807C11.6724 8.96361 11.8715 8.84606 12.0413 8.69251C12.2141 8.54623 12.3503 8.36162 12.4391 8.15338C12.5582 7.80722 12.6008 7.43934 12.5638 7.07513C12.5564 6.81496 12.5108 6.55729 12.4285 6.31038C12.3535 6.13215 12.2422 5.97147 12.1018 5.83858C11.9613 5.70569 11.7947 5.6035 11.6126 5.53851C11.4552 5.4815 11.2925 5.44014 11.127 5.41501C11.0016 5.39566 10.875 5.38534 10.7481 5.38413M10.5237 8.10826H10.418V6.35076H10.6472C10.7484 6.34346 10.8499 6.35899 10.9442 6.39619C11.0385 6.4334 11.1233 6.49132 11.1923 6.56569C11.3351 6.7569 11.4115 6.98963 11.4096 7.22832C11.4096 7.52044 11.4096 7.78526 11.146 7.97169C10.956 8.07615 10.7399 8.12437 10.5237 8.10826ZM14.883 5.36869C14.7512 5.36869 14.623 5.37819 14.5327 5.38176L14.2501 5.38888H13.3238V11.0889H14.414C14.8306 11.1003 15.2453 11.0297 15.6347 10.8811C15.9481 10.7568 16.2256 10.5564 16.4422 10.298C16.6528 10.0373 16.804 9.73375 16.8851 9.40857C16.9784 9.04029 17.0239 8.66153 17.0205 8.28163C17.0436 7.83294 17.0088 7.38315 16.9172 6.94332C16.8303 6.61956 16.6674 6.32118 16.4422 6.07288C16.2655 5.87239 16.0492 5.71066 15.8069 5.59788C15.5988 5.50159 15.3799 5.43063 15.155 5.38651C15.0655 5.37173 14.9749 5.36497 14.8842 5.36632M14.6681 10.0415H14.5493V6.40301H14.5648C14.8096 6.37484 15.0573 6.41901 15.2773 6.53007C15.4384 6.65871 15.5696 6.82077 15.662 7.00507C15.7617 7.19903 15.8192 7.41191 15.8306 7.62969C15.8413 7.89094 15.8306 8.10469 15.8306 8.28163C15.8355 8.48545 15.8224 8.6893 15.7915 8.89082C15.7549 9.09772 15.6872 9.29789 15.5908 9.48457C15.4816 9.65813 15.3342 9.80437 15.1597 9.91207C15.0132 10.0068 14.8397 10.051 14.6657 10.0379M20.6982 5.38888H17.8126V11.0889H19.0333V8.82788H20.5771V7.76863H19.0333V6.44813H20.6958V5.38888" fill="#464648"/>
<path d="M25.8648 24.0528C25.8648 24.0528 29.6506 23.3664 29.6506 24.6596C29.6506 25.9528 27.3053 25.4267 25.8648 24.0528ZM23.0659 24.1514C22.4644 24.2843 21.8782 24.4789 21.3167 24.7321L21.7917 23.6633C22.2667 22.5946 22.7595 21.1375 22.7595 21.1375C23.3263 22.0915 23.9858 22.9872 24.7284 23.8117C24.1684 23.8953 23.6134 24.0094 23.0659 24.1537V24.1514ZM21.5673 16.4326C21.5673 15.3057 21.9318 14.9981 22.2156 14.9981C22.4994 14.9981 22.8189 15.1347 22.8296 16.1132C22.7371 17.0971 22.5311 18.067 22.2156 19.0036C21.7835 18.2172 21.5599 17.3334 21.5661 16.4362L21.5673 16.4326ZM16.0466 28.9204C14.8852 28.2257 18.4821 26.087 19.1341 26.0181C19.1305 26.0193 17.2626 29.6471 16.0466 28.9204ZM30.7561 24.8128C30.7443 24.6941 30.6374 23.3795 28.298 23.4353C27.3229 23.4196 26.3483 23.4883 25.3851 23.6407C24.452 22.7007 23.6485 21.6404 22.9958 20.4879C23.407 19.2998 23.6559 18.0615 23.7356 16.8067C23.7012 15.3817 23.3604 14.5647 22.2679 14.5766C21.1754 14.5884 21.0163 15.5444 21.1599 16.967C21.3007 17.923 21.5662 18.8564 21.9496 19.7434C21.9496 19.7434 21.4449 21.3144 20.7776 22.8772C20.1102 24.4399 19.6542 25.2593 19.6542 25.2593C18.4937 25.6371 17.4012 26.1984 16.4183 26.9218C15.4398 27.8326 15.0419 28.5321 15.5573 29.2315C16.0014 29.8347 17.5559 29.9713 18.9453 28.1509C19.6835 27.2106 20.3579 26.222 20.964 25.1916C20.964 25.1916 23.0825 24.6109 23.7416 24.4518C24.4006 24.2927 25.1974 24.1668 25.1974 24.1668C25.1974 24.1668 27.1319 26.1131 28.9974 26.0442C30.863 25.9754 30.7728 24.9292 30.7609 24.8152" fill="#DD2025"/>
<path d="M28.4453 2.46643V9.44062H35.1345L28.4453 2.46643Z" fill="#909090"/>
<path d="M28.5371 2.375V9.34919H35.2263L28.5371 2.375Z" fill="#F4F4F4"/>
<path d="M10.6575 5.29268H9.10547V10.9927H10.331V9.07131L10.6017 9.08675C10.8636 9.08224 11.1231 9.03532 11.37 8.94781C11.5865 8.87332 11.7856 8.75577 11.9555 8.60225C12.127 8.45558 12.2619 8.271 12.3497 8.06312C12.4688 7.71696 12.5114 7.34908 12.4744 6.98487C12.467 6.7247 12.4214 6.46703 12.339 6.22012C12.2641 6.04189 12.1528 5.88121 12.0124 5.74832C11.8719 5.61543 11.7053 5.51324 11.5232 5.44825C11.365 5.39069 11.2016 5.34892 11.0352 5.32356C10.9098 5.30422 10.7832 5.2939 10.6563 5.29268M10.4319 8.01681H10.3262V6.25931H10.5566C10.6577 6.25202 10.7592 6.26754 10.8536 6.30475C10.9479 6.34195 11.0327 6.39988 11.1017 6.47425C11.2445 6.66545 11.3209 6.89819 11.319 7.13687C11.319 7.429 11.319 7.69381 11.0553 7.88025C10.8654 7.9847 10.6492 8.03174 10.4331 8.01562M14.7912 5.27725C14.6594 5.27725 14.5312 5.28675 14.4409 5.29031L14.1618 5.29743H13.2356V10.9974H14.3257C14.7423 11.0089 15.1571 10.9382 15.5465 10.7896C15.8599 10.6653 16.1374 10.4649 16.354 10.2066C16.5646 9.94585 16.7158 9.6423 16.7969 9.31712C16.8902 8.94884 16.9357 8.57008 16.9323 8.19018C16.9553 7.7415 16.9206 7.29171 16.829 6.85187C16.742 6.52812 16.5792 6.22973 16.354 5.98143C16.1773 5.78094 15.9609 5.61921 15.7187 5.50643C15.5106 5.41015 15.2917 5.33918 15.0667 5.29506C14.9772 5.28028 14.8866 5.27352 14.796 5.27487M14.5798 9.95006H14.4611V6.31156H14.4765C14.7213 6.28339 14.969 6.32757 15.189 6.43862C15.3501 6.56726 15.4814 6.72932 15.5738 6.91362C15.6735 7.10758 15.7309 7.32047 15.7424 7.53825C15.7531 7.7995 15.7424 8.01325 15.7424 8.19018C15.7472 8.394 15.7341 8.59785 15.7032 8.79937C15.6666 9.00627 15.599 9.20645 15.5025 9.39312C15.3934 9.56668 15.2459 9.71292 15.0715 9.82062C14.925 9.91538 14.7515 9.95959 14.5775 9.9465M20.6064 5.29743H17.7208V10.9974H18.9415V8.73643H20.4853V7.67719H18.9415V6.35668H20.604V5.29743" fill="white"/>
</svg>
