<svg width="21" height="23" viewBox="0 0 21 23" fill="none" xmlns="http://www.w3.org/2000/svg">
<path d="M15.3564 22.7143C13.8743 22.7143 12.6107 22.1918 11.5657 21.1468C10.5207 20.1018 9.99859 18.8386 9.9993 17.3572C9.9993 15.875 10.5218 14.6114 11.5668 13.5664C12.6118 12.5214 13.875 11.9993 15.3564 12C16.8386 12 18.1022 12.5225 19.1472 13.5675C20.1922 14.6125 20.7143 15.8757 20.7136 17.3572C20.7136 18.8393 20.1911 20.1029 19.1461 21.1479C18.1011 22.1929 16.8379 22.715 15.3564 22.7143ZM17.1511 19.9018L17.9011 19.1518L15.8922 17.1429V14.1429H14.8207V17.5714L17.1511 19.9018ZM0.356445 21.6429V2.35715H6.97252C7.16895 1.73215 7.55287 1.21858 8.1243 0.816439C8.69573 0.414296 9.32073 0.213582 9.9993 0.214296C10.7136 0.214296 11.3522 0.415368 11.915 0.817511C12.4779 1.21965 12.8572 1.73287 13.0529 2.35715H19.6422V11.1964C19.3207 10.9643 18.9814 10.7679 18.6243 10.6072C18.2672 10.4464 17.8922 10.3036 17.4993 10.1786V4.50001H15.3564V7.7143H4.64216V4.50001H2.4993V19.5H8.17787C8.30287 19.8929 8.44573 20.2679 8.60645 20.625C8.76716 20.9822 8.96359 21.3214 9.19573 21.6429H0.356445ZM9.9993 4.50001C10.3029 4.50001 10.5575 4.39715 10.7632 4.19144C10.9689 3.98572 11.0714 3.73144 11.0707 3.42858C11.0707 3.12501 10.9679 2.87037 10.7622 2.66465C10.5564 2.45894 10.3022 2.35644 9.9993 2.35715C9.69573 2.35715 9.44109 2.46001 9.23537 2.66572C9.02966 2.87144 8.92716 3.12573 8.92787 3.42858C8.92787 3.73215 9.03073 3.9868 9.23645 4.19251C9.44216 4.39822 9.69645 4.50073 9.9993 4.50001Z" fill="white"/>
</svg>
