<svg width="33" height="25" viewBox="0 0 33 25" fill="none" xmlns="http://www.w3.org/2000/svg">
<path d="M0.0426137 25V18.1818C0.0426137 16.1695 0.421402 14.0507 1.17898 11.8253C1.93655 9.5999 2.99006 7.46922 4.33949 5.43324C5.68892 3.39725 7.2751 1.65719 9.09801 0.213069L14.3537 3.97727C12.9096 6.08428 11.6785 8.28598 10.6605 10.5824C9.64252 12.8788 9.13352 15.3764 9.13352 18.0753V25H0.0426137ZM18.1534 25V18.1818C18.1534 16.1695 18.5322 14.0507 19.2898 11.8253C20.0473 9.5999 21.1009 7.46922 22.4503 5.43324C23.7997 3.39725 25.3859 1.65719 27.2088 0.213069L32.4645 3.97727C31.0204 6.08428 29.7893 8.28598 28.7713 10.5824C27.7533 12.8788 27.2443 15.3764 27.2443 18.0753V25H18.1534Z" fill="#FF5757"/>
</svg>
