<svg width="77" height="45" viewBox="0 0 77 45" fill="none" xmlns="http://www.w3.org/2000/svg">
<g clip-path="url(#clip0_1_333)">
<path d="M26.9335 43.2983L27.3732 41.5963C27.4988 41.155 27.8129 40.8398 28.2525 40.6507C29.0691 40.3986 29.8856 40.0204 30.7021 39.6421C31.079 39.453 31.5815 39.453 31.9583 39.6421L33.4658 40.4616C33.9682 40.7768 34.6591 40.6507 35.0988 40.2095L40.0608 35.2295C40.5005 34.7883 40.5633 34.1579 40.312 33.5905L39.4955 32.0777C39.2443 31.6994 39.2443 31.1951 39.4955 30.8169H33.9682C31.3302 34.4731 26.9963 36.8055 22.16 36.8055C14.1203 36.8055 7.52526 30.2496 7.52526 22.1178C7.52526 13.986 14.0575 7.61921 22.0972 7.61921C26.9335 7.61921 31.2046 10.0146 33.9054 13.6077H39.4327C39.2443 13.2295 39.2443 12.7252 39.4327 12.347L40.2492 10.8341C40.5633 10.3298 40.4377 9.6364 39.998 9.19514L35.036 4.21519C34.5963 3.77393 33.9682 3.7109 33.4029 3.96305L31.8955 4.78253C31.5186 5.03468 31.0162 5.03468 30.6393 4.78253C29.8228 4.40431 29.0691 4.02608 28.1897 3.77393C27.7501 3.64786 27.436 3.26964 27.3104 2.82837L26.8707 1.12637C26.7451 0.685108 26.2426 0.306885 25.6145 0.306885L18.5798 0.306885C17.9517 0.306885 17.4492 0.685108 17.2608 1.31548L16.8211 3.01749C16.6955 3.45875 16.3815 3.77393 15.9418 3.96305C15.1253 4.21519 14.3087 4.59342 13.4922 4.97164C13.1153 5.16075 12.6129 5.16075 12.236 4.97164L10.7286 4.15216C10.2261 3.83697 9.53517 3.96305 9.0955 4.40431L4.13353 9.38425C3.69386 9.82551 3.63104 10.4559 3.88228 11.0232L4.69881 12.5361C4.95005 12.9143 4.95005 13.4186 4.69881 13.7969C4.32195 14.6163 3.94509 15.3728 3.69385 16.2553C3.56823 16.6966 3.19137 17.0118 2.7517 17.1378L1.05584 17.5791C0.490547 17.7682 0.0508804 18.2725 0.0508804 18.9029V25.963C0.0508804 26.5934 0.427738 27.0977 1.05584 27.2868L2.7517 27.7281C3.19137 27.8542 3.50542 28.1693 3.69385 28.6106C3.94509 29.4301 4.32195 30.2496 4.69881 31.0691C4.88724 31.4473 4.88724 31.9516 4.69881 32.3298L3.88228 33.8427C3.56823 34.347 3.69386 35.0404 4.13353 35.4817L9.0955 40.4616C9.53517 40.9029 10.1633 40.9659 10.7286 40.7138L12.236 39.8943C12.6129 39.6421 13.1153 39.6421 13.4922 39.8943C14.3087 40.2725 15.0624 40.6507 15.9418 40.9029C16.3815 41.0289 16.6955 41.4072 16.8211 41.8484L17.2608 43.5504C17.4492 44.1178 17.9517 44.559 18.5798 44.559H25.6145C26.2426 44.3069 26.7451 43.8656 26.9335 43.2983Z" fill="#333333"/>
<path d="M11.7217 22.317C11.7217 25.5319 14.3597 27.9903 17.5002 27.9903H62.9746V16.6436H17.5002C14.3597 16.6436 11.7217 19.1021 11.7217 22.317Z" fill="#FF5757"/>
<path d="M24.1582 22.317C24.1582 21.2453 24.9748 20.4258 26.0425 20.4258H55.1235C56.1913 20.4258 57.0078 21.2453 57.0078 22.317C57.0078 23.3886 56.1913 24.2081 55.1235 24.2081H26.0425C24.9748 24.2081 24.1582 23.3256 24.1582 22.317Z" fill="white"/>
<path d="M77.4209 27.423H66.4292L63.4771 22.3169L66.4292 17.2109H77.4209C75.6622 14.1221 72.3333 12.0419 68.5019 12.0419C62.849 12.0419 58.2639 16.6436 58.2639 22.3169C58.2639 27.9903 62.849 32.592 68.5019 32.592C72.3333 32.592 75.6622 30.5118 77.4209 27.423Z" fill="#FF5757"/>
</g>
<defs>
<clipPath id="clip0_1_333">
<rect width="44" height="76" fill="white" transform="matrix(0 1 -1 0 76.1768 0.306885)"/>
</clipPath>
</defs>
</svg>
