<svg width="22" height="22" viewBox="0 0 22 22" fill="none" xmlns="http://www.w3.org/2000/svg">
<path d="M2.43873 4.58216H19.5816V6.72502H2.43873V4.58216ZM4.58158 0.296448H17.4387V2.43931H4.58158V0.296448ZM19.5709 8.85716H2.42801C1.85969 8.85716 1.31465 9.08293 0.912784 9.48479C0.510921 9.88665 0.285156 10.4317 0.285156 11V19.5714C0.285156 20.1398 0.510921 20.6848 0.912784 21.0867C1.31465 21.4885 1.85969 21.7143 2.42801 21.7143H19.5709C20.1392 21.7143 20.6842 21.4885 21.0861 21.0867C21.488 20.6848 21.7137 20.1398 21.7137 19.5714V11C21.7137 10.4317 21.488 9.88665 21.0861 9.48479C20.6842 9.08293 20.1392 8.85716 19.5709 8.85716ZM9.17801 19.5714L5.6423 16.1L7.1423 14.6L9.17801 16.6357L14.8566 10.9572L16.3566 12.4572L9.17801 19.5714Z" fill="white"/>
</svg>
