<svg width="113" height="111" viewBox="0 0 113 111" fill="none" xmlns="http://www.w3.org/2000/svg">
<g filter="url(#filter0_di_1_1207)">
<path d="M29.3344 47.2129L29.3344 53.6513C29.3344 54.2104 29.7132 54.6974 30.2362 54.8417L31.7692 55.2745C32.1659 55.3827 32.4725 55.6893 32.6168 56.0861C32.8693 56.8616 33.1939 57.601 33.5366 58.3224C33.7169 58.7011 33.7169 59.134 33.5185 59.4947L32.743 60.8833C32.4725 61.3703 32.5447 61.9835 32.9414 62.3802L37.5043 66.9431C37.901 67.3398 38.5142 67.412 39.0012 67.1415L40.3898 66.366C40.7505 66.1676 41.1834 66.1676 41.5621 66.3479C42.2835 66.7086 43.0229 67.0152 43.7984 67.2677C44.1952 67.3939 44.5018 67.7005 44.61 68.1153L45.0429 69.6483C45.1871 70.1894 45.6741 70.55 46.2331 70.55H52.6716C53.2307 70.55 53.7176 70.1713 53.8619 69.6483L54.2948 68.1153C54.403 67.7186 54.7096 67.412 55.1063 67.2677C55.8818 67.0152 56.6213 66.6906 57.3426 66.3479C57.7214 66.1676 58.1542 66.1676 58.5149 66.366L59.9036 67.1415C60.3905 67.412 61.0037 67.3398 61.4005 66.9431L65.9633 62.3802C66.3601 61.9835 66.4322 61.3703 66.1617 60.8833L65.3862 59.4947C65.1878 59.134 65.1878 58.7011 65.3682 58.3224C65.7289 57.601 66.0355 56.8616 66.288 56.0861C66.4142 55.6893 66.7208 55.3827 67.1356 55.2745L68.6686 54.8417C69.2096 54.6974 69.5703 54.2104 69.5703 53.6513V47.2129C69.5703 46.6538 69.1916 46.1669 68.6686 46.0226L67.1356 45.5897C66.7388 45.4815 66.4322 45.1749 66.288 44.7782C66.0355 44.0027 65.7108 43.2632 65.3682 42.5418C65.1878 42.1631 65.1878 41.7303 65.3862 41.3696L66.1617 39.9809C66.4322 39.4939 66.3601 38.8808 65.9633 38.484L61.4005 33.9212C61.0037 33.5244 60.3905 33.4523 59.9036 33.7228L58.5149 34.4983C58.1542 34.6967 57.7214 34.6967 57.3426 34.5163C56.6213 34.1556 55.8818 33.849 55.1063 33.5965C54.7096 33.4703 54.403 33.1637 54.2948 32.7489L53.8619 31.2159C53.7176 30.6749 53.2307 30.3142 52.6716 30.3142L46.2331 30.3142C45.6741 30.3142 45.1871 30.6929 45.0429 31.2159L44.61 32.7489C44.5018 33.1457 44.1952 33.4523 43.7984 33.5965C43.0229 33.849 42.2835 34.1736 41.5621 34.5163C41.1834 34.6967 40.7505 34.6967 40.3898 34.4983L39.0012 33.7228C38.5142 33.4523 37.901 33.5244 37.5043 33.9212L32.9414 38.484C32.5447 38.8808 32.4725 39.4939 32.743 39.9809L33.5185 41.3696C33.7169 41.7303 33.7169 42.1631 33.5366 42.5418C33.1759 43.2632 32.8693 44.0027 32.6168 44.7782C32.4906 45.1749 32.184 45.4815 31.7692 45.5897L30.2362 46.0226C29.6951 46.1669 29.3344 46.6718 29.3344 47.2129ZM49.4434 38.8627C55.8457 38.8627 61.0218 44.0387 61.0218 50.4411C61.0218 56.8435 55.8457 62.0195 49.4434 62.0195C43.041 62.0195 37.865 56.8435 37.865 50.4411C37.865 44.0387 43.041 38.8627 49.4434 38.8627Z" fill="#3D3D3D"/>
</g>
<g filter="url(#filter1_di_1_1207)">
<path d="M-3.44992 40.3282L-3.44992 44.1435C-3.44992 44.4749 -3.22549 44.7634 -2.91556 44.8489L-2.00713 45.1054C-1.77201 45.1695 -1.59032 45.3512 -1.50482 45.5863C-1.3552 46.0459 -1.16282 46.4841 -0.959766 46.9116C-0.852892 47.136 -0.852896 47.3925 -0.970457 47.6062L-1.43001 48.4292C-1.59032 48.7177 -1.54757 49.0811 -1.31245 49.3162L1.39145 52.0201C1.62657 52.2552 1.98994 52.298 2.2785 52.1377L3.10143 51.6781C3.31517 51.5606 3.57167 51.5606 3.7961 51.6674C4.2236 51.8812 4.66178 52.0629 5.12133 52.2125C5.35645 52.2873 5.53814 52.469 5.60226 52.7148L5.85876 53.6232C5.94426 53.9438 6.23282 54.1576 6.56412 54.1576H10.3795C10.7108 54.1576 10.9994 53.9332 11.0849 53.6232L11.3414 52.7148C11.4055 52.4797 11.5872 52.298 11.8223 52.2125C12.2819 52.0629 12.72 51.8705 13.1475 51.6674C13.372 51.5606 13.6285 51.5606 13.8422 51.6781L14.6651 52.1377C14.9537 52.298 15.3171 52.2552 15.5522 52.0201L18.2561 49.3162C18.4912 49.0811 18.534 48.7177 18.3736 48.4292L17.9141 47.6062C17.7965 47.3925 17.7965 47.136 17.9034 46.9116C18.1171 46.4841 18.2988 46.0459 18.4485 45.5863C18.5233 45.3512 18.705 45.1695 18.9508 45.1054L19.8592 44.8489C20.1798 44.7634 20.3936 44.4749 20.3936 44.1435L20.3936 40.3282C20.3936 39.9969 20.1691 39.7083 19.8592 39.6228L18.9508 39.3663C18.7156 39.3022 18.534 39.1205 18.4485 38.8854C18.2988 38.4258 18.1065 37.9876 17.9034 37.5601C17.7965 37.3357 17.7965 37.0792 17.9141 36.8655L18.3736 36.0425C18.534 35.754 18.4912 35.3906 18.2561 35.1555L15.5522 32.4516C15.3171 32.2165 14.9537 32.1737 14.6651 32.334L13.8422 32.7936C13.6285 32.9111 13.372 32.9111 13.1475 32.8043C12.72 32.5905 12.2819 32.4088 11.8223 32.2592C11.5872 32.1844 11.4055 32.0027 11.3414 31.7569L11.0849 30.8485C10.9994 30.5279 10.7108 30.3141 10.3795 30.3141L6.56412 30.3141C6.23282 30.3141 5.94426 30.5385 5.85876 30.8485L5.60226 31.7569C5.53814 31.992 5.35645 32.1737 5.12133 32.2592C4.66178 32.4088 4.2236 32.6012 3.7961 32.8043C3.57167 32.9111 3.31517 32.9111 3.10143 32.7936L2.2785 32.334C1.98994 32.1737 1.62657 32.2165 1.39145 32.4516L-1.31245 35.1555C-1.54757 35.3906 -1.59032 35.754 -1.43001 36.0425L-0.970457 36.8655C-0.852896 37.0792 -0.852892 37.3357 -0.959766 37.5601C-1.17351 37.9876 -1.3552 38.4258 -1.50482 38.8854C-1.57964 39.1205 -1.76132 39.3022 -2.00713 39.3663L-2.91556 39.6228C-3.23618 39.7083 -3.44992 40.0075 -3.44992 40.3282ZM8.46647 35.3799C12.2605 35.3799 15.3277 38.4472 15.3277 42.2412C15.3277 46.0352 12.2605 49.1025 8.46647 49.1025C4.67246 49.1025 1.6052 46.0352 1.6052 42.2412C1.6052 38.4472 4.67246 35.3799 8.46647 35.3799Z" fill="#3D3D3D"/>
</g>
<g filter="url(#filter2_di_1_1207)">
<path d="M82.9827 28.4063V32.2217C82.9827 32.553 83.2071 32.8415 83.5171 32.927L84.4255 33.1835C84.6606 33.2477 84.8423 33.4293 84.9278 33.6645C85.0774 34.124 85.2698 34.5622 85.4729 34.9897C85.5797 35.2141 85.5797 35.4706 85.4622 35.6844L85.0026 36.5073C84.8423 36.7959 84.885 37.1592 85.1202 37.3943L87.8241 40.0982C88.0592 40.3334 88.4226 40.3761 88.7111 40.2158L89.534 39.7563C89.7478 39.6387 90.0043 39.6387 90.2287 39.7456C90.6562 39.9593 91.0944 40.141 91.5539 40.2906C91.7891 40.3654 91.9708 40.5471 92.0349 40.7929L92.2914 41.7014C92.3769 42.022 92.6654 42.2357 92.9967 42.2357H96.8121C97.1434 42.2357 97.432 42.0113 97.5175 41.7014L97.774 40.7929C97.8381 40.5578 98.0198 40.3761 98.2549 40.2906C98.7145 40.141 99.1527 39.9486 99.5801 39.7456C99.8046 39.6387 100.061 39.6387 100.275 39.7563L101.098 40.2158C101.386 40.3761 101.75 40.3334 101.985 40.0982L104.689 37.3943C104.924 37.1592 104.967 36.7959 104.806 36.5073L104.347 35.6844C104.229 35.4706 104.229 35.2141 104.336 34.9897C104.55 34.5622 104.731 34.124 104.881 33.6645C104.956 33.4293 105.138 33.2477 105.383 33.1835L106.292 32.927C106.612 32.8415 106.826 32.553 106.826 32.2217V28.4063C106.826 28.075 106.602 27.7864 106.292 27.7009L105.383 27.4444C105.148 27.3803 104.967 27.1986 104.881 26.9635C104.731 26.5039 104.539 26.0658 104.336 25.6383C104.229 25.4138 104.229 25.1573 104.347 24.9436L104.806 24.1207C104.967 23.8321 104.924 23.4687 104.689 23.2336L101.985 20.5297C101.75 20.2946 101.386 20.2518 101.098 20.4121L100.275 20.8717C100.061 20.9893 99.8046 20.9893 99.5801 20.8824C99.1527 20.6686 98.7145 20.487 98.2549 20.3373C98.0198 20.2625 97.8381 20.0808 97.774 19.835L97.5175 18.9266C97.432 18.606 97.1434 18.3922 96.8121 18.3922L92.9967 18.3922C92.6654 18.3922 92.3769 18.6167 92.2914 18.9266L92.0349 19.835C91.9708 20.0702 91.7891 20.2518 91.5539 20.3373C91.0944 20.487 90.6562 20.6793 90.2287 20.8824C90.0043 20.9893 89.7478 20.9893 89.534 20.8717L88.7111 20.4121C88.4226 20.2518 88.0592 20.2946 87.8241 20.5297L85.1202 23.2336C84.885 23.4687 84.8423 23.8321 85.0026 24.1207L85.4622 24.9436C85.5797 25.1573 85.5797 25.4138 85.4729 25.6383C85.2591 26.0658 85.0774 26.5039 84.9278 26.9635C84.853 27.1986 84.6713 27.3803 84.4255 27.4444L83.5171 27.7009C83.1964 27.7864 82.9827 28.0857 82.9827 28.4063ZM94.8991 23.458C98.6931 23.458 101.76 26.5253 101.76 30.3193C101.76 34.1133 98.6931 37.1806 94.8991 37.1806C91.1051 37.1806 88.0378 34.1133 88.0378 30.3193C88.0378 26.5253 91.1051 23.458 94.8991 23.458Z" fill="#3D3D3D"/>
</g>
<g filter="url(#filter3_di_1_1207)">
<path d="M-19.8426 67.0031V69.6262C-19.8426 69.854 -19.6883 70.0524 -19.4752 70.1111L-18.8507 70.2875C-18.689 70.3316 -18.5641 70.4565 -18.5053 70.6181C-18.4025 70.9341 -18.2702 71.2353 -18.1306 71.5292C-18.0571 71.6835 -18.0571 71.8599 -18.138 72.0068L-18.4539 72.5726C-18.5641 72.771 -18.5347 73.0208 -18.3731 73.1824L-16.5141 75.0414C-16.3525 75.203 -16.1027 75.2324 -15.9043 75.1222L-15.3385 74.8062C-15.1916 74.7254 -15.0152 74.7254 -14.8609 74.7989C-14.567 74.9458 -14.2658 75.0707 -13.9498 75.1736C-13.7882 75.225 -13.6633 75.35 -13.6192 75.5189L-13.4429 76.1435C-13.3841 76.3639 -13.1857 76.5109 -12.9579 76.5109H-10.3349C-10.1071 76.5109 -9.9087 76.3566 -9.84992 76.1435L-9.67357 75.5189C-9.62949 75.3573 -9.50458 75.2324 -9.34293 75.1736C-9.02699 75.0707 -8.72574 74.9385 -8.43184 74.7989C-8.27754 74.7254 -8.1012 74.7254 -7.95425 74.8062L-7.38848 75.1222C-7.1901 75.2324 -6.94028 75.203 -6.77864 75.0414L-4.91971 73.1824C-4.75806 73.0208 -4.72867 72.771 -4.83888 72.5726L-5.15483 72.0068C-5.23565 71.8599 -5.23565 71.6835 -5.16218 71.5292C-5.01523 71.2353 -4.89032 70.9341 -4.78745 70.6181C-4.73602 70.4565 -4.61111 70.3316 -4.44211 70.2875L-3.81757 70.1111C-3.59715 70.0524 -3.4502 69.854 -3.4502 69.6262L-3.4502 67.0031C-3.4502 66.7754 -3.60449 66.577 -3.81757 66.5182L-4.44211 66.3419C-4.60376 66.2978 -4.72867 66.1729 -4.78745 66.0112C-4.89032 65.6953 -5.02257 65.394 -5.16218 65.1001C-5.23565 64.9458 -5.23565 64.7695 -5.15483 64.6225L-4.83888 64.0568C-4.72867 63.8584 -4.75806 63.6086 -4.91971 63.4469L-6.77864 61.588C-6.94028 61.4263 -7.1901 61.3969 -7.38848 61.5072L-7.95425 61.8231C-8.1012 61.9039 -8.27754 61.9039 -8.43184 61.8305C-8.72574 61.6835 -9.02699 61.5586 -9.34293 61.4557C-9.50458 61.4043 -9.62949 61.2794 -9.67357 61.1104L-9.84992 60.4859C-9.9087 60.2654 -10.1071 60.1185 -10.3349 60.1185H-12.9579C-13.1857 60.1185 -13.3841 60.2728 -13.4429 60.4859L-13.6192 61.1104C-13.6633 61.272 -13.7882 61.3969 -13.9498 61.4557C-14.2658 61.5586 -14.567 61.6908 -14.8609 61.8305C-15.0152 61.9039 -15.1916 61.9039 -15.3385 61.8231L-15.9043 61.5072C-16.1027 61.3969 -16.3525 61.4263 -16.5141 61.588L-18.3731 63.4469C-18.5347 63.6086 -18.5641 63.8584 -18.4539 64.0568L-18.138 64.6225C-18.0571 64.7695 -18.0571 64.9458 -18.1306 65.1001C-18.2776 65.394 -18.4025 65.6953 -18.5053 66.0112C-18.5568 66.1729 -18.6817 66.2978 -18.8507 66.3419L-19.4752 66.5182C-19.6956 66.577 -19.8426 66.7827 -19.8426 67.0031ZM-11.6501 63.6012C-9.04169 63.6012 -6.93294 65.71 -6.93294 68.3183C-6.93294 70.9267 -9.04169 73.0355 -11.6501 73.0355C-14.2584 73.0355 -16.3672 70.9267 -16.3672 68.3183C-16.3672 65.71 -14.2584 63.6012 -11.6501 63.6012Z" fill="#3D3D3D"/>
</g>
<g filter="url(#filter4_di_1_1207)">
<path d="M20.3937 20.6575V22.0882C20.3937 22.2125 20.4778 22.3207 20.594 22.3528L20.9347 22.4489C21.0229 22.473 21.091 22.5411 21.1231 22.6293C21.1792 22.8016 21.2513 22.9659 21.3275 23.1262C21.3675 23.2104 21.3675 23.3066 21.3235 23.3868L21.1511 23.6953C21.091 23.8036 21.107 23.9398 21.1952 24.028L22.2092 25.042C22.2973 25.1301 22.4336 25.1462 22.5418 25.086L22.8504 24.9137C22.9306 24.8696 23.0268 24.8696 23.1109 24.9097C23.2712 24.9899 23.4355 25.058 23.6079 25.1141C23.696 25.1421 23.7642 25.2103 23.7882 25.3025L23.8844 25.6431C23.9165 25.7634 24.0247 25.8435 24.1489 25.8435H25.5797C25.7039 25.8435 25.8121 25.7593 25.8442 25.6431L25.9404 25.3025C25.9644 25.2143 26.0326 25.1462 26.1207 25.1141C26.2931 25.058 26.4574 24.9858 26.6177 24.9097C26.7019 24.8696 26.7981 24.8696 26.8782 24.9137L27.1868 25.086C27.295 25.1462 27.4313 25.1301 27.5194 25.042L28.5334 24.028C28.6216 23.9398 28.6376 23.8036 28.5775 23.6953L28.4052 23.3868C28.3611 23.3066 28.3611 23.2104 28.4012 23.1262C28.4813 22.9659 28.5494 22.8016 28.6055 22.6293C28.6336 22.5411 28.7017 22.473 28.7939 22.4489L29.1346 22.3528C29.2548 22.3207 29.335 22.2125 29.335 22.0882V20.6575C29.335 20.5332 29.2508 20.425 29.1346 20.393L28.7939 20.2968C28.7057 20.2727 28.6376 20.2046 28.6055 20.1164C28.5494 19.9441 28.4773 19.7798 28.4012 19.6195C28.3611 19.5353 28.3611 19.4391 28.4052 19.359L28.5775 19.0504C28.6376 18.9422 28.6216 18.8059 28.5334 18.7177L27.5194 17.7038C27.4313 17.6156 27.295 17.5996 27.1868 17.6597L26.8782 17.832C26.7981 17.8761 26.7019 17.8761 26.6177 17.836C26.4574 17.7559 26.2931 17.6877 26.1207 17.6316C26.0326 17.6036 25.9644 17.5354 25.9404 17.4432L25.8442 17.1026C25.8121 16.9824 25.7039 16.9022 25.5797 16.9022H24.1489C24.0247 16.9022 23.9165 16.9864 23.8844 17.1026L23.7882 17.4432C23.7642 17.5314 23.696 17.5996 23.6079 17.6316C23.4355 17.6877 23.2712 17.7599 23.1109 17.836C23.0268 17.8761 22.9306 17.8761 22.8504 17.832L22.5418 17.6597C22.4336 17.5996 22.2973 17.6156 22.2092 17.7038L21.1952 18.7177C21.107 18.8059 21.091 18.9422 21.1511 19.0504L21.3235 19.359C21.3675 19.4391 21.3675 19.5353 21.3275 19.6195C21.2473 19.7798 21.1792 19.9441 21.1231 20.1164C21.095 20.2046 21.0269 20.2727 20.9347 20.2968L20.594 20.393C20.4738 20.425 20.3937 20.5372 20.3937 20.6575ZM24.8623 18.8019C26.2851 18.8019 27.4353 19.9521 27.4353 21.3749C27.4353 22.7976 26.2851 23.9478 24.8623 23.9478C23.4396 23.9478 22.2893 22.7976 22.2893 21.3749C22.2893 19.9521 23.4396 18.8019 24.8623 18.8019Z" fill="#3D3D3D"/>
</g>
<g filter="url(#filter5_di_1_1207)">
<path d="M48.7072 8.88472V11.5078C48.7072 11.7356 48.8615 11.934 49.0746 11.9927L49.6991 12.1691C49.8608 12.2132 49.9857 12.3381 50.0445 12.4997C50.1473 12.8157 50.2796 13.1169 50.4192 13.4108C50.4927 13.5651 50.4927 13.7415 50.4119 13.8884L50.0959 14.4542C49.9857 14.6526 50.0151 14.9024 50.1767 15.064L52.0357 16.9229C52.1973 17.0846 52.4471 17.114 52.6455 17.0038L53.2113 16.6878C53.3582 16.607 53.5346 16.607 53.6889 16.6805C53.9828 16.8274 54.284 16.9523 54.6 17.0552C54.7616 17.1066 54.8865 17.2315 54.9306 17.4005L55.1069 18.0251C55.1657 18.2455 55.3641 18.3925 55.5919 18.3925H58.215C58.4427 18.3925 58.6411 18.2382 58.6999 18.0251L58.8762 17.4005C58.9203 17.2389 59.0452 17.114 59.2069 17.0552C59.5228 16.9523 59.8241 16.8201 60.118 16.6805C60.2723 16.607 60.4486 16.607 60.5956 16.6878L61.1613 17.0038C61.3597 17.114 61.6095 17.0846 61.7712 16.9229L63.6301 15.064C63.7917 14.9024 63.8211 14.6526 63.7109 14.4542L63.395 13.8884C63.3142 13.7415 63.3142 13.5651 63.3876 13.4108C63.5346 13.1169 63.6595 12.8157 63.7624 12.4997C63.8138 12.3381 63.9387 12.2132 64.1077 12.1691L64.7322 11.9927C64.9527 11.934 65.0996 11.7356 65.0996 11.5078V8.88472C65.0996 8.65695 64.9453 8.45856 64.7322 8.39978L64.1077 8.22344C63.946 8.17936 63.8211 8.05445 63.7624 7.8928C63.6595 7.57686 63.5272 7.27561 63.3876 6.98171C63.3142 6.82741 63.3142 6.65107 63.395 6.50412L63.7109 5.93835C63.8211 5.73997 63.7917 5.49015 63.6301 5.32851L61.7712 3.46958C61.6095 3.30793 61.3597 3.27854 61.1613 3.38875L60.5956 3.7047C60.4486 3.78552 60.2723 3.78552 60.118 3.71204C59.8241 3.56509 59.5228 3.44018 59.2069 3.33732C59.0452 3.28589 58.9203 3.16098 58.8762 2.99199L58.6999 2.36744C58.6411 2.14702 58.4427 2.00006 58.215 2.00006H55.5919C55.3641 2.00006 55.1657 2.15436 55.1069 2.36744L54.9306 2.99199C54.8865 3.15363 54.7616 3.27854 54.6 3.33732C54.284 3.44018 53.9828 3.57244 53.6889 3.71204C53.5346 3.78552 53.3582 3.78552 53.2113 3.7047L52.6455 3.38875C52.4471 3.27854 52.1973 3.30793 52.0357 3.46958L50.1767 5.32851C50.0151 5.49015 49.9857 5.73997 50.0959 5.93835L50.4119 6.50412C50.4927 6.65107 50.4927 6.82741 50.4192 6.98171C50.2723 7.27561 50.1473 7.57686 50.0445 7.8928C49.993 8.05445 49.8681 8.17936 49.6991 8.22344L49.0746 8.39978C48.8542 8.45856 48.7072 8.6643 48.7072 8.88472ZM56.8997 5.48281C59.5081 5.48281 61.6169 7.59155 61.6169 10.1999C61.6169 12.8083 59.5081 14.9171 56.8997 14.9171C54.2914 14.9171 52.1826 12.8083 52.1826 10.1999C52.1826 7.59155 54.2914 5.48281 56.8997 5.48281Z" fill="#3D3D3D"/>
</g>
<defs>
<filter id="filter0_di_1_1207" x="27.334" y="28.3142" width="48.2363" height="48.2358" filterUnits="userSpaceOnUse" color-interpolation-filters="sRGB">
<feFlood flood-opacity="0" result="BackgroundImageFix"/>
<feColorMatrix in="SourceAlpha" type="matrix" values="0 0 0 0 0 0 0 0 0 0 0 0 0 0 0 0 0 0 127 0" result="hardAlpha"/>
<feOffset dx="2" dy="2"/>
<feGaussianBlur stdDeviation="2"/>
<feComposite in2="hardAlpha" operator="out"/>
<feColorMatrix type="matrix" values="0 0 0 0 0 0 0 0 0 0 0 0 0 0 0 0 0 0 0.25 0"/>
<feBlend mode="normal" in2="BackgroundImageFix" result="effect1_dropShadow_1_1207"/>
<feBlend mode="normal" in="SourceGraphic" in2="effect1_dropShadow_1_1207" result="shape"/>
<feColorMatrix in="SourceAlpha" type="matrix" values="0 0 0 0 0 0 0 0 0 0 0 0 0 0 0 0 0 0 127 0" result="hardAlpha"/>
<feOffset dx="2" dy="2"/>
<feGaussianBlur stdDeviation="2"/>
<feComposite in2="hardAlpha" operator="arithmetic" k2="-1" k3="1"/>
<feColorMatrix type="matrix" values="0 0 0 0 0 0 0 0 0 0 0 0 0 0 0 0 0 0 0.25 0"/>
<feBlend mode="normal" in2="shape" result="effect2_innerShadow_1_1207"/>
</filter>
<filter id="filter1_di_1_1207" x="-5.4502" y="28.3141" width="31.8438" height="31.8435" filterUnits="userSpaceOnUse" color-interpolation-filters="sRGB">
<feFlood flood-opacity="0" result="BackgroundImageFix"/>
<feColorMatrix in="SourceAlpha" type="matrix" values="0 0 0 0 0 0 0 0 0 0 0 0 0 0 0 0 0 0 127 0" result="hardAlpha"/>
<feOffset dx="2" dy="2"/>
<feGaussianBlur stdDeviation="2"/>
<feComposite in2="hardAlpha" operator="out"/>
<feColorMatrix type="matrix" values="0 0 0 0 0 0 0 0 0 0 0 0 0 0 0 0 0 0 0.25 0"/>
<feBlend mode="normal" in2="BackgroundImageFix" result="effect1_dropShadow_1_1207"/>
<feBlend mode="normal" in="SourceGraphic" in2="effect1_dropShadow_1_1207" result="shape"/>
<feColorMatrix in="SourceAlpha" type="matrix" values="0 0 0 0 0 0 0 0 0 0 0 0 0 0 0 0 0 0 127 0" result="hardAlpha"/>
<feOffset dx="2" dy="2"/>
<feGaussianBlur stdDeviation="2"/>
<feComposite in2="hardAlpha" operator="arithmetic" k2="-1" k3="1"/>
<feColorMatrix type="matrix" values="0 0 0 0 0 0 0 0 0 0 0 0 0 0 0 0 0 0 0.25 0"/>
<feBlend mode="normal" in2="shape" result="effect2_innerShadow_1_1207"/>
</filter>
<filter id="filter2_di_1_1207" x="80.9824" y="16.3922" width="31.8438" height="31.8435" filterUnits="userSpaceOnUse" color-interpolation-filters="sRGB">
<feFlood flood-opacity="0" result="BackgroundImageFix"/>
<feColorMatrix in="SourceAlpha" type="matrix" values="0 0 0 0 0 0 0 0 0 0 0 0 0 0 0 0 0 0 127 0" result="hardAlpha"/>
<feOffset dx="2" dy="2"/>
<feGaussianBlur stdDeviation="2"/>
<feComposite in2="hardAlpha" operator="out"/>
<feColorMatrix type="matrix" values="0 0 0 0 0 0 0 0 0 0 0 0 0 0 0 0 0 0 0.25 0"/>
<feBlend mode="normal" in2="BackgroundImageFix" result="effect1_dropShadow_1_1207"/>
<feBlend mode="normal" in="SourceGraphic" in2="effect1_dropShadow_1_1207" result="shape"/>
<feColorMatrix in="SourceAlpha" type="matrix" values="0 0 0 0 0 0 0 0 0 0 0 0 0 0 0 0 0 0 127 0" result="hardAlpha"/>
<feOffset dx="2" dy="2"/>
<feGaussianBlur stdDeviation="2"/>
<feComposite in2="hardAlpha" operator="arithmetic" k2="-1" k3="1"/>
<feColorMatrix type="matrix" values="0 0 0 0 0 0 0 0 0 0 0 0 0 0 0 0 0 0 0.25 0"/>
<feBlend mode="normal" in2="shape" result="effect2_innerShadow_1_1207"/>
</filter>
<filter id="filter3_di_1_1207" x="-21.8428" y="58.1185" width="24.3926" height="24.3923" filterUnits="userSpaceOnUse" color-interpolation-filters="sRGB">
<feFlood flood-opacity="0" result="BackgroundImageFix"/>
<feColorMatrix in="SourceAlpha" type="matrix" values="0 0 0 0 0 0 0 0 0 0 0 0 0 0 0 0 0 0 127 0" result="hardAlpha"/>
<feOffset dx="2" dy="2"/>
<feGaussianBlur stdDeviation="2"/>
<feComposite in2="hardAlpha" operator="out"/>
<feColorMatrix type="matrix" values="0 0 0 0 0 0 0 0 0 0 0 0 0 0 0 0 0 0 0.25 0"/>
<feBlend mode="normal" in2="BackgroundImageFix" result="effect1_dropShadow_1_1207"/>
<feBlend mode="normal" in="SourceGraphic" in2="effect1_dropShadow_1_1207" result="shape"/>
<feColorMatrix in="SourceAlpha" type="matrix" values="0 0 0 0 0 0 0 0 0 0 0 0 0 0 0 0 0 0 127 0" result="hardAlpha"/>
<feOffset dx="2" dy="2"/>
<feGaussianBlur stdDeviation="2"/>
<feComposite in2="hardAlpha" operator="arithmetic" k2="-1" k3="1"/>
<feColorMatrix type="matrix" values="0 0 0 0 0 0 0 0 0 0 0 0 0 0 0 0 0 0 0.25 0"/>
<feBlend mode="normal" in2="shape" result="effect2_innerShadow_1_1207"/>
</filter>
<filter id="filter4_di_1_1207" x="18.3936" y="14.9022" width="16.9414" height="16.9413" filterUnits="userSpaceOnUse" color-interpolation-filters="sRGB">
<feFlood flood-opacity="0" result="BackgroundImageFix"/>
<feColorMatrix in="SourceAlpha" type="matrix" values="0 0 0 0 0 0 0 0 0 0 0 0 0 0 0 0 0 0 127 0" result="hardAlpha"/>
<feOffset dx="2" dy="2"/>
<feGaussianBlur stdDeviation="2"/>
<feComposite in2="hardAlpha" operator="out"/>
<feColorMatrix type="matrix" values="0 0 0 0 0 0 0 0 0 0 0 0 0 0 0 0 0 0 0.25 0"/>
<feBlend mode="normal" in2="BackgroundImageFix" result="effect1_dropShadow_1_1207"/>
<feBlend mode="normal" in="SourceGraphic" in2="effect1_dropShadow_1_1207" result="shape"/>
<feColorMatrix in="SourceAlpha" type="matrix" values="0 0 0 0 0 0 0 0 0 0 0 0 0 0 0 0 0 0 127 0" result="hardAlpha"/>
<feOffset dx="2" dy="2"/>
<feGaussianBlur stdDeviation="2"/>
<feComposite in2="hardAlpha" operator="arithmetic" k2="-1" k3="1"/>
<feColorMatrix type="matrix" values="0 0 0 0 0 0 0 0 0 0 0 0 0 0 0 0 0 0 0.25 0"/>
<feBlend mode="normal" in2="shape" result="effect2_innerShadow_1_1207"/>
</filter>
<filter id="filter5_di_1_1207" x="46.707" y="0.00012207" width="24.3926" height="24.3923" filterUnits="userSpaceOnUse" color-interpolation-filters="sRGB">
<feFlood flood-opacity="0" result="BackgroundImageFix"/>
<feColorMatrix in="SourceAlpha" type="matrix" values="0 0 0 0 0 0 0 0 0 0 0 0 0 0 0 0 0 0 127 0" result="hardAlpha"/>
<feOffset dx="2" dy="2"/>
<feGaussianBlur stdDeviation="2"/>
<feComposite in2="hardAlpha" operator="out"/>
<feColorMatrix type="matrix" values="0 0 0 0 0 0 0 0 0 0 0 0 0 0 0 0 0 0 0.25 0"/>
<feBlend mode="normal" in2="BackgroundImageFix" result="effect1_dropShadow_1_1207"/>
<feBlend mode="normal" in="SourceGraphic" in2="effect1_dropShadow_1_1207" result="shape"/>
<feColorMatrix in="SourceAlpha" type="matrix" values="0 0 0 0 0 0 0 0 0 0 0 0 0 0 0 0 0 0 127 0" result="hardAlpha"/>
<feOffset dx="2" dy="2"/>
<feGaussianBlur stdDeviation="2"/>
<feComposite in2="hardAlpha" operator="arithmetic" k2="-1" k3="1"/>
<feColorMatrix type="matrix" values="0 0 0 0 0 0 0 0 0 0 0 0 0 0 0 0 0 0 0.25 0"/>
<feBlend mode="normal" in2="shape" result="effect2_innerShadow_1_1207"/>
</filter>
</defs>
</svg>
