<svg width="24" height="24" viewBox="0 0 24 24" fill="none" xmlns="http://www.w3.org/2000/svg">
<path d="M23.0003 10.9946C22.7351 10.9946 22.4807 10.8893 22.2932 10.7018C22.1057 10.5144 22.0003 10.2602 22.0003 9.99507C21.9982 7.87504 21.1546 5.84245 19.6548 4.34337C18.155 2.84428 16.1214 2.00117 14.0003 1.99905C13.7351 1.99905 13.4807 1.89375 13.2932 1.70631C13.1057 1.51886 13.0003 1.26464 13.0003 0.999551C13.0003 0.734467 13.1057 0.48024 13.2932 0.292797C13.4807 0.105354 13.7351 4.98042e-05 14.0003 4.98042e-05C16.6516 0.00295995 19.1934 1.05694 21.0681 2.93074C22.9429 4.80454 23.9974 7.34512 24.0003 9.99507C24.0003 10.2602 23.8949 10.5144 23.7074 10.7018C23.5199 10.8893 23.2655 10.9946 23.0003 10.9946ZM20.0003 9.99507C20.0003 8.40456 19.3682 6.8792 18.2429 5.75454C17.1177 4.62988 15.5916 3.99806 14.0003 3.99806C13.7351 3.99806 13.4807 4.10336 13.2932 4.2908C13.1057 4.47825 13.0003 4.73247 13.0003 4.99756C13.0003 5.26264 13.1057 5.51687 13.2932 5.70431C13.4807 5.89176 13.7351 5.99706 14.0003 5.99706C15.0612 5.99706 16.0786 6.41828 16.8287 7.16805C17.5789 7.91782 18.0003 8.93473 18.0003 9.99507C18.0003 10.2602 18.1057 10.5144 18.2932 10.7018C18.4807 10.8893 18.7351 10.9946 19.0003 10.9946C19.2655 10.9946 19.5199 10.8893 19.7074 10.7018C19.8949 10.5144 20.0003 10.2602 20.0003 9.99507ZM22.1833 22.153L23.0933 21.1045C23.6725 20.5237 23.9977 19.7372 23.9977 18.9171C23.9977 18.0971 23.6725 17.3105 23.0933 16.7297C23.0623 16.6987 20.6563 14.8486 20.6563 14.8486C20.0788 14.2993 19.3118 13.9933 18.5146 13.9944C17.7174 13.9956 16.9512 14.3036 16.3753 14.8546L14.4693 16.4598C12.9135 15.8163 11.5002 14.8718 10.3106 13.6807C9.12098 12.4897 8.17851 11.0755 7.5373 9.5193L9.1373 7.62025C9.68901 7.04471 9.99759 6.2788 9.9989 5.48172C10.0002 4.68464 9.69412 3.91772 9.1443 3.34038C9.1443 3.34038 7.2913 0.938582 7.2603 0.907597C6.68975 0.333632 5.91618 0.00706832 5.10672 -0.00153462C4.29727 -0.0101376 3.51693 0.299911 2.9343 0.86162L1.7843 1.86112C-5.0097 9.73919 9.62029 24.249 17.7623 23.9881C18.5845 23.9929 19.3993 23.8329 20.1586 23.5177C20.9179 23.2026 21.6064 22.7385 22.1833 22.153V22.153Z" fill="#119B1F"/>
</svg>
