<svg width="135" height="27" viewBox="0 0 135 27" fill="none" xmlns="http://www.w3.org/2000/svg">
<g clip-path="url(#clip0_1_1302)">
<path d="M132.554 11.3512L130.059 17.794H129.984L127.38 11.3512H125.027L128.928 20.3577L126.699 25.3671H128.986L135 11.3512H132.554ZM114.92 6.00467H112.741V20.8638H114.92V6.00467ZM106.719 6.00467H101.479V20.8638H103.675V15.2389H106.727C107.343 15.2603 107.956 15.1575 108.532 14.9364C109.108 14.7154 109.635 14.3806 110.082 13.9515C110.529 13.5223 110.888 13.0073 111.138 12.4365C111.387 11.8656 111.522 11.2502 111.535 10.6259C111.522 10.0006 111.387 9.38409 111.137 8.81217C110.887 8.24026 110.528 7.72435 110.08 7.29439C109.632 6.86443 109.104 6.52899 108.527 6.30755C107.95 6.0861 107.335 5.98332 106.719 6.00467ZM106.777 13.1642H103.675V8.10425H106.785C107.447 8.10425 108.082 8.3708 108.55 8.84526C109.018 9.31973 109.281 9.96324 109.281 10.6342C109.281 11.3052 109.018 11.9487 108.55 12.4232C108.082 12.8977 107.447 13.1642 106.785 13.1642H106.777H106.777ZM120.294 11.0307C119.495 10.9842 118.701 11.1749 118.008 11.5793C117.315 11.9837 116.754 12.5843 116.392 13.3075L118.339 14.1509C118.532 13.7933 118.823 13.5007 119.178 13.3089C119.533 13.1171 119.935 13.0346 120.335 13.0714C120.61 13.0436 120.888 13.071 121.152 13.1523C121.416 13.2335 121.662 13.3669 121.876 13.5448C122.089 13.7227 122.266 13.9416 122.395 14.1889C122.525 14.4362 122.605 14.707 122.631 14.9858V15.1376C121.934 14.7552 121.153 14.5551 120.36 14.5556C118.272 14.5556 116.143 15.7196 116.143 17.929C116.143 19.9193 117.848 21.2011 119.778 21.2011C120.327 21.2364 120.875 21.1202 121.365 20.8648C121.854 20.6094 122.266 20.2243 122.556 19.7506H122.639V20.8974H124.769V15.1799C124.769 12.5403 122.822 11.0729 120.31 11.0729L120.294 11.0307ZM120.036 19.1772C119.321 19.1772 118.322 18.8061 118.322 17.9122C118.322 16.7654 119.562 16.327 120.643 16.327C121.341 16.3077 122.03 16.4796 122.639 16.8242C122.559 17.4691 122.251 18.0627 121.772 18.4952C121.294 18.9278 120.677 19.17 120.036 19.1772ZM41.1653 21.1843C36.8579 21.1987 33.3398 17.6994 33.2715 13.3329C33.34 8.96638 36.8579 5.46707 41.1653 5.48151C42.1515 5.46489 43.1312 5.64804 44.0467 6.02023C44.9622 6.39242 45.7953 6.94616 46.497 7.64899L44.9914 9.15859C43.9703 8.14411 42.5949 7.58022 41.1653 7.58991C38.0553 7.58991 35.5341 10.1461 35.5341 13.2992C35.5341 16.4523 38.0553 19.0085 41.1653 19.0085C41.8921 19.0387 42.6171 18.914 43.2934 18.6423C43.9697 18.3706 44.5822 17.958 45.0914 17.4313C45.7683 16.6914 46.1762 15.7395 46.2476 14.7329H41.1653V12.6499H48.3187C48.3968 13.0923 48.4329 13.5411 48.4268 13.9908C48.4987 15.8576 47.8376 17.6772 46.5885 19.0507C45.8833 19.7729 45.0358 20.3362 44.1013 20.7038C43.1668 21.0713 42.1664 21.2353 41.1653 21.1843ZM59.4897 16.1243C59.5172 16.799 59.4099 17.4724 59.1742 18.104C58.9385 18.7355 58.5793 19.3123 58.1182 19.7995C57.6571 20.2868 57.1035 20.6745 56.4908 20.9393C55.8782 21.2042 55.219 21.3407 54.553 21.3407C53.8869 21.3407 53.2278 21.2042 52.6151 20.9393C52.0024 20.6745 51.4489 20.2868 50.9877 19.7995C50.5266 19.3123 50.1674 18.7355 49.9317 18.104C49.696 17.4724 49.5887 16.799 49.6162 16.1243C49.5887 15.4496 49.696 14.7763 49.9317 14.1447C50.1674 13.5131 50.5266 12.9363 50.9877 12.4491C51.4489 11.9618 52.0024 11.5741 52.6151 11.3093C53.2278 11.0444 53.8869 10.9079 54.553 10.9079C55.219 10.9079 55.8782 11.0444 56.4908 11.3093C57.1035 11.5741 57.6571 11.9618 58.1182 12.4491C58.5793 12.9363 58.9385 13.5131 59.1742 14.1447C59.4099 14.7763 59.5172 15.4496 59.4897 16.1243ZM57.3271 16.1243C57.3636 15.7326 57.3191 15.3375 57.1963 14.9643C57.0735 14.5911 56.8752 14.248 56.614 13.9569C56.3529 13.6659 56.0346 13.4334 55.6797 13.2743C55.3248 13.1152 54.941 13.0331 54.553 13.0331C54.1649 13.0331 53.7811 13.1152 53.4262 13.2743C53.0713 13.4334 52.7531 13.6659 52.4919 13.9569C52.2308 14.248 52.0324 14.5911 51.9096 14.9643C51.7869 15.3375 51.7423 15.7326 51.7789 16.1243C51.7423 16.516 51.7869 16.9111 51.9096 17.2843C52.0324 17.6576 52.2308 18.0007 52.4919 18.2917C52.7531 18.5827 53.0713 18.8152 53.4262 18.9743C53.7811 19.1334 54.1649 19.2156 54.553 19.2156C54.941 19.2156 55.3248 19.1334 55.6797 18.9743C56.0346 18.8152 56.3529 18.5827 56.614 18.2917C56.8752 18.0007 57.0735 17.6576 57.1963 17.2843C57.3191 16.9111 57.3636 16.516 57.3271 16.1243ZM70.5526 16.1243C70.5526 18.8863 68.3441 21.1252 65.6201 21.1252C62.8958 21.1252 60.6873 18.8863 60.6873 16.1243C60.6873 13.3623 62.8958 11.1234 65.6201 11.1234C68.3441 11.1234 70.5526 13.3623 70.5526 16.1243ZM68.3984 16.1243C68.4349 15.7326 68.3904 15.3375 68.2676 14.9643C68.1448 14.5911 67.9465 14.248 67.6853 13.9569C67.4242 13.6659 67.106 13.4334 66.751 13.2743C66.3961 13.1152 66.0123 13.0331 65.6243 13.0331C65.2362 13.0331 64.8524 13.1152 64.4975 13.2743C64.1426 13.4334 63.8244 13.6659 63.5632 13.9569C63.3021 14.248 63.1037 14.5911 62.981 14.9643C62.8582 15.3375 62.8136 15.7326 62.8502 16.1243C62.8134 16.5161 62.8578 16.9114 62.9805 17.2847C63.1032 17.6581 63.3015 18.0014 63.5626 18.2926C63.8238 18.5837 64.1421 18.8164 64.4971 18.9756C64.8521 19.1348 65.236 19.217 65.6242 19.217C66.0123 19.217 66.3962 19.1348 66.7512 18.9756C67.1062 18.8164 67.4245 18.5837 67.6857 18.2926C67.9468 18.0014 68.1451 17.6581 68.2678 17.2847C68.3905 16.9114 68.4351 16.5161 68.3984 16.1243ZM81.3491 11.3766V20.459C81.3491 24.1864 79.1615 25.7214 76.583 25.7214C75.6378 25.7294 74.7115 25.4533 73.9209 24.928C73.1304 24.4027 72.5111 23.6517 72.1412 22.7698L74.0294 21.9264C74.2252 22.4413 74.5663 22.8863 75.0101 23.2057C75.4539 23.5252 75.9807 23.7051 76.5247 23.7228C78.1885 23.7228 79.2031 22.6856 79.2031 20.7542V20.0289H79.1201C78.7938 20.398 78.3934 20.6921 77.9457 20.8914C77.4981 21.0907 77.0136 21.1905 76.5247 21.1843C73.7683 21.1843 71.534 18.919 71.534 16.1243C71.534 13.3297 73.7683 11.0644 76.5247 11.0644C77.0168 11.0533 77.5056 11.1484 77.9587 11.3432C78.4118 11.538 78.819 11.8281 79.1533 12.1943H79.2363V11.3512H81.3491V11.3766ZM79.4112 16.1497C79.4417 15.768 79.3963 15.384 79.2777 15.0205C79.1591 14.6569 78.9696 14.3212 78.7205 14.0333C78.4715 13.7454 78.1679 13.5112 77.8279 13.3446C77.4878 13.1779 77.1182 13.0822 76.741 13.0632C76.3564 13.0761 75.9782 13.1666 75.6285 13.3294C75.2788 13.4923 74.9646 13.7242 74.7044 14.0116C74.4442 14.299 74.243 14.6361 74.1128 15.0032C73.9826 15.3703 73.9259 15.7601 73.946 16.1497C73.9282 16.5367 73.9868 16.9234 74.1184 17.2871C74.2499 17.6508 74.4518 17.9842 74.7121 18.2677C74.9724 18.5513 75.286 18.7793 75.6344 18.9384C75.9828 19.0974 76.359 19.1843 76.741 19.194C77.1159 19.1793 77.4841 19.088 77.8234 18.9255C78.1627 18.763 78.4661 18.5327 78.7155 18.2484C78.9649 17.9641 79.155 17.6317 79.2746 17.271C79.3941 16.9104 79.4406 16.529 79.4112 16.1497ZM85.2003 6.02124V20.8723H83.0045V6.02124H85.2003ZM93.8509 17.7943L95.5645 18.9411C95.107 19.6332 94.488 20.2001 93.7625 20.5914C93.037 20.9826 92.2274 21.1862 91.4056 21.184C90.7519 21.1935 90.1031 21.0684 89.4984 20.8163C88.8938 20.5642 88.3459 20.1903 87.8878 19.7173C87.4298 19.2443 87.0713 18.682 86.8338 18.0644C86.5963 17.4468 86.4849 16.7868 86.5063 16.1243C86.3046 13.7665 87.88 11.6306 90.1682 11.1601C92.4558 10.6896 94.7276 12.0345 95.4479 14.2859L95.6726 14.8679L89.0183 17.659C89.2256 18.1316 89.5678 18.5303 90.0006 18.8039C90.4335 19.0775 90.9373 19.2134 91.447 19.194C91.9319 19.1863 92.4068 19.0538 92.8273 18.8089C93.2478 18.564 93.6 18.2151 93.8509 17.7943ZM88.6025 15.9725L93.0775 14.1004C92.9043 13.7566 92.6355 13.4719 92.3043 13.2815C91.9731 13.0912 91.5941 13.0034 91.2142 13.0292C90.851 13.0453 90.4946 13.1347 90.1659 13.292C89.8371 13.4493 89.5426 13.6714 89.2994 13.9455C89.0563 14.2195 88.8694 14.5398 88.7498 14.8879C88.6301 15.2359 88.58 15.6046 88.6025 15.9725Z" fill="#5F6368"/>
<path d="M11.2629 12.886L0.100586 24.743C0.225905 25.1934 0.451141 25.6088 0.759077 25.9574C1.06701 26.3061 1.44949 26.5787 1.87728 26.7545C2.30507 26.9303 2.76685 27.0046 3.2273 26.9717C3.68775 26.9389 4.1347 26.7997 4.53397 26.5648L17.094 19.3123L11.2629 12.886Z" fill="#EA4335"/>
<path d="M22.5503 10.8702L17.1186 7.71631L11.0049 13.1559L17.1434 19.295L22.5337 16.1748C23.0112 15.9213 23.4112 15.5402 23.6903 15.0726C23.9694 14.6051 24.1169 14.069 24.1169 13.5225C24.1169 12.976 23.9694 12.4399 23.6903 11.9724C23.4112 11.5049 23.0112 11.1237 22.5337 10.8702H22.5503Z" fill="#FBBC04"/>
<path d="M0.0999626 2.24319C0.0324458 2.49615 -0.00116678 2.75718 3.09107e-05 3.01924V23.9672C0.000821926 24.2292 0.0343083 24.4899 0.0999626 24.743L11.6451 13.19L0.100226 2.24292L0.0999626 2.24319Z" fill="#4285F4"/>
<path d="M11.3462 13.4931L17.1188 7.71639L4.5751 0.430401C4.10317 0.150065 3.56639 0.00155696 3.01943 4.58009e-06C2.3591 -0.00115154 1.71649 0.216595 1.18954 0.620064C0.662583 1.02353 0.280175 1.5906 0.100586 2.23486L11.3462 13.4931Z" fill="#34A853"/>
</g>
<defs>
<clipPath id="clip0_1_1302">
<rect width="135" height="27" fill="white"/>
</clipPath>
</defs>
</svg>
