<svg width="24" height="20" viewBox="0 0 24 20" fill="none" xmlns="http://www.w3.org/2000/svg">
<path d="M19.7944 7.85719C19.6515 7.85719 19.5354 7.81683 19.4461 7.73612C19.3569 7.6554 19.2944 7.5529 19.2586 7.42862L19.1247 6.73219C18.964 6.67862 18.8169 6.61147 18.6833 6.53076C18.5497 6.45004 18.429 6.35647 18.3211 6.25004L17.5979 6.49112C17.4908 6.52683 17.379 6.52219 17.2626 6.47719C17.1461 6.43219 17.0526 6.35647 16.9819 6.25004L16.6604 5.71433C16.589 5.60719 16.5665 5.49112 16.5929 5.36612C16.6194 5.24112 16.6776 5.13397 16.7676 5.04469L17.3569 4.53576C17.3211 4.44647 17.3033 4.37504 17.3033 4.32147V3.8929C17.3033 3.83933 17.3211 3.7679 17.3569 3.67862L16.7676 3.16969C16.6783 3.0804 16.6204 2.97326 16.594 2.84826C16.5676 2.72326 16.5897 2.60719 16.6604 2.50004L16.9819 1.96433C17.0533 1.85719 17.1472 1.78112 17.2636 1.73612C17.3801 1.69112 17.4915 1.68683 17.5979 1.72326L18.3211 1.96433C18.4283 1.85719 18.549 1.76326 18.6833 1.68254C18.8176 1.60183 18.9647 1.53504 19.1247 1.48219L19.2586 0.785759C19.2944 0.660759 19.3569 0.557901 19.4461 0.477187C19.5354 0.396473 19.6515 0.356473 19.7944 0.357187H20.3836C20.5265 0.357187 20.6426 0.397544 20.7319 0.478258C20.8211 0.558973 20.8836 0.661473 20.9194 0.785759L21.0533 1.48219C21.214 1.53576 21.3615 1.6029 21.4958 1.68362C21.6301 1.76433 21.7504 1.8579 21.8569 1.96433L22.5801 1.72326C22.6872 1.68754 22.799 1.69219 22.9154 1.73719C23.0319 1.78219 23.1254 1.8579 23.1961 1.96433L23.5176 2.50004C23.589 2.60719 23.6115 2.72326 23.5851 2.84826C23.5586 2.97326 23.5004 3.0804 23.4104 3.16969L22.8211 3.67862C22.8569 3.7679 22.8747 3.83933 22.8747 3.8929V4.32147C22.8747 4.37504 22.8569 4.44647 22.8211 4.53576L23.4104 5.04469C23.4997 5.13397 23.5579 5.24112 23.5851 5.36612C23.6122 5.49112 23.5897 5.60719 23.5176 5.71433L23.1961 6.25004C23.1247 6.35719 23.0311 6.43326 22.9154 6.47826C22.7997 6.52326 22.6879 6.52754 22.5801 6.49112L21.8569 6.25004C21.7497 6.35719 21.6294 6.45112 21.4958 6.53183C21.3622 6.61254 21.2147 6.67933 21.0533 6.73219L20.9194 7.42862C20.8836 7.55362 20.8211 7.65647 20.7319 7.73719C20.6426 7.8179 20.5265 7.8579 20.3836 7.85719H19.7944ZM20.089 5.44647C20.464 5.44647 20.7811 5.31683 21.0404 5.05754C21.2997 4.79826 21.429 4.48147 21.4283 4.10719C21.4283 3.73219 21.2987 3.41504 21.0394 3.15576C20.7801 2.89647 20.4633 2.76719 20.089 2.7679C19.714 2.7679 19.3969 2.89754 19.1376 3.15683C18.8783 3.41612 18.749 3.7329 18.7497 4.10719C18.7497 4.48219 18.8794 4.79933 19.1386 5.05862C19.3979 5.3179 19.7147 5.44719 20.089 5.44647ZM17.089 13.2143C17.0533 13.2143 16.964 13.1429 16.8211 13L16.714 12.4108C16.6069 12.375 16.504 12.3347 16.4054 12.2897C16.3069 12.2447 16.2133 12.1779 16.1247 12.0893L15.589 12.2768C15.5533 12.2947 15.4461 12.259 15.2676 12.1697L14.9461 11.5804L14.9997 11.259L15.4283 10.8572V10.2143L14.9997 9.81254C14.964 9.77683 14.9461 9.66969 14.9461 9.49112L15.2676 8.90183C15.2676 8.88397 15.3747 8.84826 15.589 8.79469L16.1247 8.98219C16.1961 8.91076 16.2854 8.84826 16.3926 8.79469C16.4997 8.74112 16.6069 8.69647 16.714 8.66076L16.8211 8.07147C16.8211 8.03576 16.9104 7.96433 17.089 7.85719H17.7319C17.7676 7.85719 17.8569 7.92862 17.9997 8.07147L18.1069 8.66076C18.214 8.69647 18.3211 8.74112 18.4283 8.79469C18.5354 8.84826 18.6247 8.91076 18.6961 8.98219L19.2319 8.79469C19.2676 8.77683 19.3747 8.81254 19.5533 8.90183L19.8747 9.49112L19.8211 9.81254L19.3926 10.2143V10.8572L19.8211 11.259C19.8569 11.2947 19.8747 11.4018 19.8747 11.5804L19.5533 12.1697C19.5533 12.1875 19.4461 12.2233 19.2319 12.2768L18.6961 12.0893C18.6069 12.1786 18.5133 12.2458 18.4154 12.2908C18.3176 12.3358 18.2147 12.3758 18.1069 12.4108L17.9997 13C17.9997 13.0358 17.9104 13.1072 17.7319 13.2143H17.089ZM17.4104 11.3393C17.6247 11.3393 17.8122 11.259 17.9729 11.0983C18.1336 10.9375 18.214 10.75 18.214 10.5358C18.214 10.3215 18.1336 10.134 17.9729 9.97326C17.8122 9.81254 17.6247 9.73219 17.4104 9.73219C17.1961 9.73219 17.0086 9.81254 16.8479 9.97326C16.6872 10.134 16.6069 10.3215 16.6069 10.5358C16.6069 10.75 16.6872 10.9375 16.8479 11.0983C17.0086 11.259 17.1961 11.3393 17.4104 11.3393ZM8.83901 11.0715C7.66044 11.0715 6.65151 10.6518 5.81222 9.81254C4.97294 8.97326 4.55329 7.96433 4.55329 6.78576H4.28544C4.12472 6.78576 3.99544 6.73647 3.89758 6.6379C3.79972 6.53933 3.75044 6.41004 3.74972 6.25004C3.74972 6.08933 3.79901 5.95969 3.89758 5.86112C3.99615 5.76254 4.12544 5.71362 4.28544 5.71433H4.55329C4.55329 4.91076 4.74972 4.18754 5.14258 3.54469C5.53544 2.90183 6.05329 2.3929 6.69615 2.0179V3.03576C6.69615 3.19647 6.74544 3.32612 6.84401 3.42469C6.94258 3.52326 7.07186 3.57219 7.23186 3.57147C7.39258 3.57147 7.52222 3.52219 7.62079 3.42362C7.71936 3.32504 7.76829 3.19576 7.76758 3.03576V1.58933C7.92829 1.53576 8.09793 1.4954 8.27651 1.46826C8.45508 1.44112 8.64258 1.4279 8.83901 1.42862C9.03543 1.42862 9.22293 1.44219 9.40151 1.46933C9.58008 1.49647 9.74972 1.53647 9.91043 1.58933V3.03576C9.91043 3.19647 9.95972 3.32612 10.0583 3.42469C10.1569 3.52326 10.2861 3.57219 10.4461 3.57147C10.6069 3.57147 10.7365 3.52219 10.8351 3.42362C10.9336 3.32504 10.9826 3.19576 10.9819 3.03576V2.0179C11.6247 2.3929 12.1426 2.90183 12.5354 3.54469C12.9283 4.18754 13.1247 4.91076 13.1247 5.71433H13.3926C13.5533 5.71433 13.6829 5.76362 13.7815 5.86219C13.8801 5.96076 13.929 6.09004 13.9283 6.25004C13.9283 6.41076 13.879 6.5404 13.7804 6.63897C13.6819 6.73754 13.5526 6.78647 13.3926 6.78576H13.1247C13.1247 7.96433 12.7051 8.97326 11.8658 9.81254C11.0265 10.6518 10.0176 11.0715 8.83901 11.0715ZM8.83901 8.92862C9.42829 8.92862 9.93293 8.71862 10.3529 8.29862C10.7729 7.87862 10.9826 7.37433 10.9819 6.78576H6.69615C6.69615 7.37504 6.90615 7.87969 7.32615 8.29969C7.74615 8.71969 8.25043 8.92933 8.83901 8.92862ZM0.267578 19.6429V16.6429C0.267578 16.0536 0.419364 15.5 0.722935 14.9822C1.02651 14.4643 1.44615 14.0715 1.98186 13.8036C2.89258 13.3393 3.91936 12.9465 5.06222 12.625C6.20508 12.3036 7.46401 12.1429 8.83901 12.1429C10.214 12.1429 11.4729 12.3036 12.6158 12.625C13.7586 12.9465 14.7854 13.3393 15.6961 13.8036C16.2319 14.0715 16.6515 14.4643 16.9551 14.9822C17.2586 15.5 17.4104 16.0536 17.4104 16.6429V19.6429H0.267578Z" fill="#FF5757"/>
</svg>
